<svg width="128" height="28" viewBox="0 0 128 28" fill="none" xmlns="http://www.w3.org/2000/svg">
<path d="M56.073 27V3.141H60.8415L71.7315 18.9315V3.141H76.5495V27H72.21L60.8745 10.5825V27H56.073Z" fill="black"/>
<path d="M87.3645 27.33C86.5725 27.33 85.7915 27.209 85.0215 26.967C84.2625 26.725 83.5695 26.3675 82.9425 25.8945C82.3155 25.4215 81.8095 24.8385 81.4245 24.1455C81.0505 23.4525 80.8635 22.6495 80.8635 21.7365V9.939H85.6815V21.126C85.6815 21.918 85.94 22.567 86.457 23.073C86.974 23.579 87.733 23.832 88.734 23.832C89.68 23.832 90.428 23.59 90.978 23.106C91.539 22.611 91.8195 21.9235 91.8195 21.0435V9.939H96.588V27H92.958L92.397 23.6175C92.199 24.6185 91.825 25.3885 91.275 25.9275C90.736 26.4555 90.1145 26.8185 89.4105 27.0165C88.7175 27.2255 88.0355 27.33 87.3645 27.33Z" fill="black"/>
<path d="M107.37 27.33C106.182 27.33 105.038 27.1375 103.938 26.7525C102.849 26.3565 101.919 25.7405 101.149 24.9045C100.39 24.0575 99.912 22.963 99.714 21.621H103.872C104.026 22.226 104.29 22.7045 104.664 23.0565C105.049 23.4085 105.483 23.6615 105.967 23.8155C106.451 23.9585 106.913 24.03 107.353 24.03C108.277 24.03 109.02 23.887 109.581 23.601C110.153 23.304 110.439 22.853 110.439 22.248C110.439 21.786 110.268 21.4175 109.927 21.1425C109.597 20.8675 109.047 20.6585 108.277 20.5155L105.274 19.8885C103.767 19.5695 102.552 19.0305 101.628 18.2715C100.715 17.5015 100.253 16.4125 100.242 15.0045C100.231 13.9815 100.495 13.063 101.034 12.249C101.584 11.435 102.392 10.7915 103.459 10.3185C104.537 9.8455 105.852 9.609 107.403 9.609C109.504 9.609 111.181 10.071 112.435 10.995C113.7 11.919 114.344 13.2225 114.366 14.9055H110.34C110.219 14.2455 109.889 13.7395 109.35 13.3875C108.822 13.0245 108.151 12.843 107.337 12.843C106.512 12.843 105.83 12.9915 105.291 13.2885C104.752 13.5855 104.482 14.0365 104.482 14.6415C104.482 15.0925 104.702 15.45 105.142 15.714C105.582 15.967 106.264 16.187 107.188 16.374L109.96 17.001C110.917 17.232 111.693 17.551 112.287 17.958C112.892 18.354 113.359 18.7885 113.689 19.2615C114.019 19.7345 114.245 20.213 114.366 20.697C114.498 21.17 114.564 21.599 114.564 21.984C114.564 23.117 114.261 24.085 113.656 24.888C113.051 25.68 112.21 26.285 111.132 26.703C110.054 27.121 108.8 27.33 107.37 27.33Z" fill="black"/>
<path d="M125.005 27.1815C123.498 27.1815 122.332 26.989 121.507 26.604C120.693 26.219 120.126 25.68 119.807 24.987C119.499 24.294 119.345 23.491 119.345 22.578V13.2885H116.573V9.939H119.494L120.715 4.791H124.147V9.9225H127.942V13.2885H124.147L124.18 22.38C124.18 22.798 124.229 23.1115 124.328 23.3205C124.438 23.5185 124.603 23.6505 124.823 23.7165C125.054 23.7715 125.346 23.799 125.698 23.799H127.991V26.769C127.76 26.868 127.414 26.9615 126.952 27.0495C126.49 27.1375 125.841 27.1815 125.005 27.1815Z" fill="black"/>
<path fill-rule="evenodd" clip-rule="evenodd" d="M14.2634 0C14.0882 0 13.9256 0.0391083 13.7755 0.0912497C14.0945 0.312856 14.2697 0.60616 14.3573 0.938569C14.3635 0.984193 14.376 1.01678 14.3823 1.06241C14.3886 1.10151 14.3948 1.14062 14.3948 1.17973C14.4198 1.7533 14.2509 1.82499 14.132 2.16392C13.9506 2.60062 14.0007 3.0699 14.2196 3.44794C14.2384 3.49356 14.2634 3.5457 14.2947 3.59133C14.057 1.94231 15.377 1.69464 15.6209 1.17973C15.6397 0.729998 15.2831 0.430177 15.0016 0.221606C14.7326 0.052143 14.4886 0 14.2634 0ZM16.2528 0.371517C16.2278 0.521427 16.2465 0.482319 16.2403 0.560534C16.234 0.612676 16.234 0.677856 16.2278 0.729997C16.2153 0.78214 16.2027 0.834282 16.184 0.886427C16.1715 0.938569 16.1527 0.990711 16.1339 1.04285C16.1089 1.095 16.0902 1.14062 16.0651 1.19276C16.0464 1.21885 16.0339 1.24491 16.0151 1.27098C16.0026 1.29053 15.9901 1.31009 15.9775 1.32964C15.9463 1.37527 15.915 1.42089 15.8837 1.45999C15.8462 1.4991 15.8149 1.54473 15.7711 1.57732V1.58384C15.7336 1.61643 15.696 1.65554 15.6522 1.68813C15.5209 1.79241 15.3707 1.87063 15.2331 1.9684C15.1893 2.00098 15.1455 2.02706 15.108 2.06616C15.0642 2.09875 15.0267 2.13134 14.9891 2.17045C14.9453 2.20955 14.914 2.24866 14.8765 2.29429C14.8452 2.3334 14.8077 2.37902 14.7827 2.42464C14.7514 2.47027 14.7201 2.51589 14.6951 2.56152C14.6701 2.61366 14.6513 2.65929 14.6263 2.71143C14.6075 2.76357 14.5887 2.8092 14.5762 2.86134C14.5575 2.92 14.5449 2.97214 14.5324 3.02429C14.5262 3.05037 14.5262 3.08294 14.5199 3.10902C14.5137 3.1351 14.5137 3.16116 14.5074 3.18723C14.5074 3.23937 14.5012 3.29803 14.5012 3.35018C14.5012 3.38928 14.5012 3.42839 14.5074 3.4675C14.5074 3.51964 14.5137 3.57178 14.5262 3.63044C14.5325 3.68258 14.545 3.73473 14.5575 3.78687C14.5762 3.83901 14.5888 3.89116 14.6075 3.9433C14.62 3.97589 14.6388 4.00848 14.6513 4.03455L13.2125 3.45446C12.9685 3.38276 12.7308 3.31759 12.4868 3.25893C12.3554 3.22634 12.224 3.19375 12.0927 3.16116C11.7173 3.08294 11.3357 3.02429 10.9541 2.98518C10.9416 2.98518 10.9353 2.97865 10.9228 2.97865C10.5474 2.93955 10.1783 2.91999 9.80299 2.91999C9.52773 2.91999 9.25247 2.93302 8.98347 2.95258C8.60186 2.97866 8.22025 3.0308 7.83864 3.09597C7.7448 3.109 7.65096 3.12856 7.55712 3.14812C7.36319 3.18722 7.17551 3.23285 6.99409 3.27847C6.90025 3.30455 6.80641 3.33062 6.71257 3.35668C6.61874 3.39579 6.53115 3.44142 6.44357 3.48053C6.37475 3.51311 6.30594 3.5457 6.23713 3.57829C6.22462 3.58482 6.21209 3.58482 6.20585 3.59132C6.14329 3.62391 6.08698 3.64998 6.03068 3.68257C6.01191 3.6891 5.9994 3.69559 5.98689 3.70212C5.91807 3.73471 5.84926 3.77382 5.79296 3.80641C5.74916 3.82596 5.70538 3.85203 5.66784 3.87159C5.64907 3.88461 5.62405 3.89767 5.61154 3.90418C5.55523 3.93676 5.49893 3.96935 5.44888 4.00194C5.39258 4.03453 5.34253 4.06712 5.29874 4.09971C5.25495 4.1323 5.21116 4.15837 5.17362 4.19096C5.16735 4.19748 5.16112 4.19748 5.15485 4.20398C5.11732 4.23007 5.07353 4.26264 5.03599 4.29524C5.03599 4.29524 5.02973 4.30176 5.02349 4.30826C4.99221 4.33434 4.96093 4.3604 4.92965 4.38647C4.91715 4.393 4.90462 4.40603 4.89212 4.41255C4.86084 4.43864 4.82956 4.47122 4.79828 4.49729C4.79201 4.51031 4.77951 4.51684 4.77325 4.52337C4.73571 4.56248 4.69817 4.59506 4.66064 4.63417C4.65437 4.63417 4.65437 4.6407 4.64814 4.6472C4.6106 4.67979 4.57307 4.71889 4.53553 4.758C4.52926 4.76453 4.52926 4.77103 4.52303 4.77103C4.49175 4.80361 4.46047 4.83621 4.42919 4.87531C4.41669 4.88834 4.39791 4.90139 4.3854 4.91442C4.35412 4.95352 4.31658 4.99263 4.27905 5.03174C4.27278 5.04476 4.26028 5.05129 4.25401 5.06433C4.20397 5.11647 4.16018 5.16861 4.11013 5.22076C4.10386 5.22728 4.09763 5.23378 4.09136 5.24031C3.99127 5.35111 3.88491 5.46192 3.77231 5.55968C3.6597 5.66397 3.54084 5.76174 3.42198 5.84647C3.29686 5.93772 3.178 6.01593 3.04662 6.09415C2.92151 6.16584 2.79013 6.23102 2.6525 6.28968C2.52113 6.34834 2.3835 6.40049 2.24587 6.44611C1.98312 6.50477 1.71412 6.61557 1.48265 6.63513C1.4326 6.63513 1.3763 6.64815 1.32625 6.65468C1.26995 6.6677 1.2199 6.68076 1.16985 6.69379C1.11981 6.71334 1.06976 6.73289 1.01971 6.75245C0.969665 6.772 0.919618 6.79807 0.869572 6.82414C0.825779 6.85673 0.775733 6.8828 0.73194 6.91539C0.68815 6.94798 0.644357 6.98709 0.606822 7.02619C0.563032 7.05879 0.51924 7.10441 0.481704 7.14352C0.444168 7.18914 0.406632 7.22825 0.375354 7.27387C0.344075 7.32601 0.306539 7.37164 0.281514 7.42378C0.250236 7.46941 0.218957 7.52155 0.193932 7.57369C0.168899 7.63235 0.143885 7.6845 0.125118 7.74316C0.10635 7.7953 0.0875819 7.85396 0.0688141 7.91262C0.0563121 7.96476 0.0437805 8.01691 0.0375354 8.06905C0.0375354 8.07558 0.0312698 8.08207 0.0312698 8.0886C0.0187677 8.14726 0.0187677 8.22548 0.0125019 8.26459C0.00623639 8.31021 0 8.34932 0 8.39494C0 8.42102 1.89983e-08 8.4536 0.00626555 8.47967C0.0125311 8.5253 0.0187675 8.56441 0.0312991 8.60352C0.0438011 8.64262 0.0563327 8.68173 0.0750888 8.72083V8.72736C0.0938566 8.76647 0.118881 8.80558 0.143903 8.84468C0.168937 8.88379 0.193953 8.9229 0.225232 8.96201C0.25651 8.9946 0.294046 9.0337 0.331582 9.06629C0.369117 9.1054 0.406653 9.13798 0.450443 9.17057C0.600586 9.30745 0.638121 9.35308 0.832054 9.45736C0.863332 9.47691 0.894614 9.48995 0.93215 9.5095C0.938417 9.5095 0.944652 9.51603 0.950918 9.51603C0.950918 9.52905 0.950918 9.53558 0.957184 9.54862C0.96345 9.60076 0.975952 9.6529 0.988463 9.70505C1.00097 9.76371 1.01974 9.81585 1.03851 9.86148C1.05728 9.90058 1.06979 9.93969 1.08856 9.9788C1.09482 9.99182 1.10106 10.0049 1.10733 10.0114C1.13236 10.0635 1.15737 10.1092 1.1824 10.1548C1.21368 10.2004 1.24496 10.246 1.27623 10.2917C1.30751 10.3308 1.34505 10.3764 1.38258 10.4155C1.42012 10.4546 1.45766 10.4872 1.50145 10.5263C1.50145 10.5263 1.50772 10.5328 1.51395 10.5328C1.55149 10.5654 1.58902 10.598 1.62656 10.6241C1.67035 10.6567 1.71414 10.6827 1.76419 10.7088C1.80798 10.7349 1.85803 10.761 1.90807 10.7805C1.94561 10.8001 1.9894 10.8131 2.03319 10.8261C2.03946 10.8327 2.04569 10.8327 2.05822 10.8392C2.08326 10.8457 2.11452 10.8522 2.13955 10.8587C2.12078 11.2107 2.11452 11.5431 2.16458 11.6604C2.22088 11.7908 2.49615 11.3932 2.77141 10.9369C2.73387 11.3867 2.70885 11.9146 2.77141 12.071C2.84022 12.234 3.21557 11.7256 3.54088 11.165C7.97631 10.0961 12.0239 13.2899 12.4493 17.8002C12.368 17.0963 11.5359 16.7052 11.1543 16.803C10.9666 17.2853 10.6476 17.9045 10.1346 18.289C10.1784 17.8589 10.1596 17.4157 10.072 16.9855C9.93442 17.5851 9.66541 18.1457 9.29631 18.628C8.702 18.6736 8.10769 18.3738 7.79489 17.924C7.76986 17.9045 7.76361 17.8654 7.74485 17.8393C7.72608 17.7937 7.70731 17.7481 7.6948 17.7024C7.67603 17.6568 7.66352 17.6112 7.65726 17.5656C7.651 17.5199 7.651 17.4743 7.651 17.4222C7.651 17.3896 7.651 17.357 7.651 17.3244C7.65726 17.2788 7.66976 17.2332 7.68228 17.1875C7.69478 17.1419 7.70731 17.0963 7.72607 17.0507C7.7511 17.005 7.76986 16.9594 7.80114 16.9138C7.90749 16.6009 7.90749 16.3467 7.71356 16.1968C7.67602 16.1707 7.63849 16.1512 7.59469 16.1316C7.56966 16.1251 7.53839 16.1121 7.51337 16.1056C7.4946 16.099 7.48209 16.0925 7.46332 16.086C7.41953 16.073 7.37574 16.0599 7.33195 16.0534C7.28815 16.0404 7.24437 16.0339 7.20057 16.0339C7.15678 16.0273 7.10673 16.0208 7.06294 16.0208C7.03166 16.0208 7.00038 16.0274 6.9691 16.0274C6.91906 16.0274 6.87527 16.0339 6.83148 16.0469C6.78768 16.0534 6.74389 16.0599 6.7001 16.073C6.65631 16.086 6.61252 16.0991 6.56873 16.1186C6.52494 16.1382 6.4874 16.1577 6.44361 16.1773C6.40607 16.1968 6.36854 16.2229 6.32475 16.2425C4.86712 17.2332 5.73669 19.5535 6.73138 20.2249C6.35602 20.2966 5.97442 20.3813 5.86807 20.466C5.8618 20.4725 5.85556 20.479 5.85556 20.479C6.12457 20.6485 6.40608 20.7919 6.70011 20.9157C7.10049 21.0526 7.52589 21.1764 7.71357 21.2286V21.2351C8.23281 21.3459 8.7583 21.385 9.29006 21.3524C12.0614 21.1504 14.3323 18.9539 14.7452 16.06C14.7577 16.1186 14.7702 16.1708 14.7827 16.2294C14.8015 16.3467 14.8265 16.4706 14.839 16.5944V16.601C14.8515 16.6596 14.8578 16.7183 14.8641 16.7704V16.7965C14.8703 16.8552 14.8766 16.9138 14.8766 16.966C14.8828 17.0377 14.8891 17.1094 14.8891 17.1811V17.2853C14.8891 17.3179 14.8953 17.357 14.8953 17.3896C14.8953 17.4287 14.8891 17.4678 14.8891 17.5069V17.5982C14.8891 17.6438 14.8828 17.6829 14.8828 17.7286C14.8828 17.7546 14.8828 17.7807 14.8765 17.8133C14.8765 17.8589 14.8703 17.9045 14.8703 17.9567C14.864 17.9762 14.864 17.9958 14.864 18.0153C14.8577 18.0675 14.8515 18.1131 14.8452 18.1652C14.8452 18.1848 14.8452 18.2044 14.839 18.2239C14.8327 18.2891 14.8202 18.3477 14.8139 18.4129V18.4195V18.426C14.8014 18.4846 14.7889 18.5498 14.7764 18.6085V18.628C14.7639 18.6867 14.7514 18.7454 14.7389 18.804C14.7389 18.8106 14.7326 18.8236 14.7326 18.8301C14.7201 18.8888 14.7076 18.9474 14.6888 19.0061V19.0256C14.67 19.0908 14.6513 19.1495 14.6388 19.2081C14.6325 19.2147 14.6325 19.2212 14.6325 19.2212C14.6137 19.2863 14.595 19.3515 14.5762 19.4167C14.5512 19.4819 14.5324 19.5405 14.5074 19.6057C14.4824 19.6709 14.4636 19.7361 14.4386 19.7947C14.4135 19.8599 14.3885 19.9186 14.3635 19.9837H14.3572C14.3322 20.0424 14.3072 20.1076 14.2759 20.1662C14.2696 20.1858 14.2634 20.1988 14.2571 20.2119C14.2509 20.2184 14.2509 20.2249 14.2446 20.2314C13.838 21.0853 13.2374 21.8348 12.4867 22.4214C12.4367 22.454 12.3866 22.4931 12.3366 22.5322C12.3241 22.5452 12.3053 22.5518 12.2928 22.5648C12.249 22.5974 12.2052 22.63 12.1552 22.6626L12.1739 22.7017H12.1802C12.2678 22.6887 12.3554 22.6756 12.4429 22.6626H12.4492C12.6119 22.6365 12.7745 22.6039 12.9372 22.5713C12.981 22.5648 13.031 22.5518 13.0748 22.5387C13.1061 22.5322 13.1311 22.5257 13.1624 22.5192C13.2062 22.5126 13.25 22.4996 13.2938 22.4931C13.3313 22.4801 13.3688 22.4735 13.4064 22.4605C14.0319 22.3041 14.6388 22.089 15.2206 21.8348C14.2259 23.2492 12.8934 24.3898 11.3357 25.1393C12.0551 25.0872 12.7745 24.9634 13.4689 24.7548C15.99 23.9792 18.1108 22.2128 19.3807 19.8338C19.1243 21.3394 18.5487 22.7734 17.6979 24.0248C18.3047 23.6076 18.8615 23.1253 19.3682 22.5778C20.7696 21.0527 21.6892 19.1169 22.002 17.0377C22.2147 18.0675 22.2772 19.1299 22.1834 20.1793C26.7002 13.6158 22.5587 6.81119 20.8259 5.01879C20.8196 5.00576 20.8134 4.99924 20.8134 4.9862C20.8071 4.99273 20.8071 4.99273 20.8071 4.99923C20.8071 4.9927 20.8071 4.9927 20.8008 4.9862C20.8008 5.06442 20.7946 5.14263 20.7883 5.22084C20.7695 5.37075 20.7508 5.51414 20.7258 5.65754C20.6945 5.80093 20.6569 5.94432 20.6194 6.08771C20.5756 6.22459 20.5256 6.36798 20.4693 6.50485C20.413 6.63521 20.3504 6.77208 20.2816 6.90244C20.2128 7.02628 20.1377 7.15664 20.0564 7.27396C19.9751 7.3978 19.8875 7.51512 19.7999 7.62592C19.706 7.74324 19.606 7.84753 19.5059 7.95181C19.4433 8.01047 19.387 8.06262 19.3244 8.11476C19.2744 8.16038 19.2306 8.19949 19.1805 8.24511C19.0679 8.33636 18.9553 8.4211 18.8302 8.49931C18.7114 8.57752 18.5862 8.65574 18.4611 8.72092C18.3297 8.7861 18.1984 8.84476 18.067 8.90342C17.9356 8.95556 17.798 9.00118 17.6604 9.04029C17.5227 9.0794 17.3789 9.11199 17.2412 9.13806C17.0973 9.16414 16.9534 9.17716 16.8158 9.1902C16.7157 9.19673 16.6156 9.20323 16.5155 9.20323C16.3716 9.20323 16.2278 9.1902 16.0901 9.17715C15.9463 9.16412 15.8024 9.14456 15.6647 9.11197C15.5208 9.08589 15.3832 9.04679 15.2456 9.00117H15.2393C15.377 8.98814 15.5146 8.97508 15.6522 8.94902C15.7961 8.92294 15.9337 8.89036 16.0714 8.85125C16.209 8.81215 16.3466 8.76652 16.478 8.71438C16.6156 8.66223 16.747 8.59706 16.8721 8.53188C17.0035 8.4667 17.1223 8.39501 17.2475 8.31679C17.3663 8.23206 17.4852 8.14733 17.5978 8.05608C17.7104 7.96483 17.8168 7.86706 17.9169 7.76278C18.0232 7.66501 18.117 7.5542 18.2109 7.4434C18.3047 7.32608 18.3923 7.20876 18.4736 7.09144C18.4861 7.07188 18.4987 7.04581 18.5112 7.02626C18.5737 6.92197 18.6363 6.81769 18.6926 6.7134C18.7614 6.58305 18.824 6.45269 18.8803 6.31582C18.9366 6.17894 18.9866 6.04207 19.0304 5.89868C19.0742 5.7618 19.1055 5.61841 19.1368 5.47502C19.1618 5.32511 19.1868 5.18171 19.1993 5.03832C19.2118 4.88841 19.2243 4.7385 19.2243 4.59511C19.2243 4.49082 19.2181 4.38654 19.2118 4.28225C19.1993 4.13234 19.1806 3.98895 19.1618 3.84556C19.1368 3.69565 19.1055 3.55226 19.068 3.40886C19.0242 3.27199 18.9804 3.1286 18.9303 2.99172C18.8803 2.85485 18.8177 2.71797 18.7552 2.58761C18.6863 2.45726 18.6175 2.3269 18.5425 2.20306C18.4611 2.07923 18.3798 1.96191 18.2922 1.84458C18.1984 1.73378 18.1045 1.62298 18.0044 1.51217C17.9544 1.46003 17.8981 1.40137 17.8418 1.34923C17.5603 1.1211 17.2663 0.906014 16.9722 0.71048C16.9284 0.684399 16.8909 0.664855 16.8471 0.6453C16.6407 0.508428 16.4467 0.436693 16.2528 0.371517Z" fill="#E0234E"/>
<path d="M0.976285 21.9228C0.756433 21.952 0.604279 22.0438 0.319734 22.2426C0.0362873 22.7285 0.000247604 23.2798 1.21627e-06 23.841C-0.000245172 24.4022 0.036714 24.9537 0.319734 25.4398C0.602754 25.9258 1.10827 26.2783 1.59867 26.5589C2.08907 26.8396 2.63105 27.0386 3.19733 27.0385H14.388C18.8222 27.0385 22.0496 25.0494 24.2997 21.2833L29.7352 11.8512L32.6128 6.89532L41.4055 21.9228H29.7352L26.8576 27.0385H44.6028C45.1691 27.0386 45.7111 26.8396 46.2015 26.5589C46.6919 26.2783 47.1973 25.9259 47.4804 25.4399C47.7635 24.9538 47.9602 24.4022 47.96 23.841C47.9598 23.2798 47.7639 22.7285 47.4804 22.2426L35.4904 1.61972C35.2074 1.13372 34.8616 0.781256 34.3713 0.50065C33.881 0.220044 33.1789 0.0210495 32.6128 0.0210495C32.0467 0.0210495 31.5044 0.220044 31.0141 0.50065C30.5238 0.781256 30.178 1.13372 29.8951 1.61972L26.8576 6.89532L26.8464 6.8764L26.8478 6.90264L24.0105 11.9671L23.8654 12.051L20.0619 18.6815C18.5676 21.125 16.8639 21.9228 14.2281 21.9228H6.43738C6.43738 21.9228 1.19614 21.8936 0.976285 21.9228Z" fill="#00DC82"/>
</svg>
